<?xml version="1.0" encoding="utf-8"?>
<!-- Generator: Adobe Illustrator 16.0.0, SVG Export Plug-In . SVG Version: 6.00 Build 0)  -->
<!DOCTYPE svg PUBLIC "-//W3C//DTD SVG 1.1//EN" "http://www.w3.org/Graphics/SVG/1.1/DTD/svg11.dtd">
<svg version="1.1" id="Layer_1" xmlns="http://www.w3.org/2000/svg" xmlns:xlink="http://www.w3.org/1999/xlink" x="0px" y="0px"
	 width="36px" height="64px" viewBox="0 0 36 64" enable-background="new 0 0 36 64" xml:space="preserve">
<path fill-rule="evenodd" clip-rule="evenodd" fill="#CCCCCC" d="M34.432,8.038L10.854,31.989L34.74,56.256h-0.001
	C35.52,57.077,36,58.196,36,59.429C36,61.954,33.985,64,31.5,64c-1.213,0-2.314-0.488-3.123-1.28l-0.002,0.001l-27-27.432h0.002
	C0.529,34.459,0,33.292,0,32c0-0.003,0-0.007,0-0.012c0-0.003,0-0.005,0-0.009c0-1.291,0.529-2.458,1.377-3.289l-0.002-0.002
	l27-27.429l0.012,0.011C29.194,0.484,30.291,0,31.5,0C33.985,0,36,2.047,36,4.571C36,5.958,35.391,7.2,34.432,8.038"/>
</svg>
